<mxfile host="app.diagrams.net" modified="2023-08-29T18:47:58.346Z" agent="Mozilla/5.0 (X11; Linux x86_64) AppleWebKit/537.36 (KHTML, like Gecko) Chrome/116.0.0.0 Safari/537.36" etag="cRLLQmY29v5l_QbBfQuH" version="21.7.0" type="google">
  <diagram name="Page-1" id="fR7UkNXTsr4Rxf2sO_XZ">
    <mxGraphModel grid="1" page="1" gridSize="10" guides="1" tooltips="1" connect="1" arrows="1" fold="1" pageScale="1" pageWidth="850" pageHeight="1100" math="0" shadow="0">
      <root>
        <mxCell id="0" />
        <mxCell id="1" parent="0" />
        <mxCell id="FVN41sQuHvilbM870-iX-1" value="Funcionario" style="rounded=0;whiteSpace=wrap;html=1;" vertex="1" parent="1">
          <mxGeometry x="190" y="130" width="120" height="60" as="geometry" />
        </mxCell>
        <mxCell id="FVN41sQuHvilbM870-iX-2" value="Salario" style="ellipse;whiteSpace=wrap;html=1;" vertex="1" parent="1">
          <mxGeometry x="10" y="115" width="120" height="70" as="geometry" />
        </mxCell>
        <mxCell id="FVN41sQuHvilbM870-iX-3" value="&lt;u&gt;CPF&lt;/u&gt;" style="ellipse;whiteSpace=wrap;html=1;" vertex="1" parent="1">
          <mxGeometry x="170" y="10" width="120" height="70" as="geometry" />
        </mxCell>
        <mxCell id="FVN41sQuHvilbM870-iX-4" value="Nome" style="ellipse;whiteSpace=wrap;html=1;" vertex="1" parent="1">
          <mxGeometry x="20" y="30" width="120" height="60" as="geometry" />
        </mxCell>
        <mxCell id="FVN41sQuHvilbM870-iX-5" value="" style="endArrow=none;html=1;rounded=0;exitX=0.589;exitY=-0.035;exitDx=0;exitDy=0;exitPerimeter=0;entryX=0.423;entryY=1.012;entryDx=0;entryDy=0;entryPerimeter=0;" edge="1" parent="1" source="FVN41sQuHvilbM870-iX-1" target="FVN41sQuHvilbM870-iX-3">
          <mxGeometry width="50" height="50" relative="1" as="geometry">
            <mxPoint x="220" y="140" as="sourcePoint" />
            <mxPoint x="270" y="90" as="targetPoint" />
          </mxGeometry>
        </mxCell>
        <mxCell id="FVN41sQuHvilbM870-iX-6" value="" style="endArrow=none;html=1;rounded=0;exitX=0.992;exitY=0.388;exitDx=0;exitDy=0;exitPerimeter=0;" edge="1" parent="1" source="FVN41sQuHvilbM870-iX-2">
          <mxGeometry width="50" height="50" relative="1" as="geometry">
            <mxPoint x="140" y="205" as="sourcePoint" />
            <mxPoint x="190" y="155" as="targetPoint" />
            <Array as="points">
              <mxPoint x="190" y="150" />
            </Array>
          </mxGeometry>
        </mxCell>
        <mxCell id="FVN41sQuHvilbM870-iX-7" value="" style="endArrow=none;html=1;rounded=0;exitX=0;exitY=0;exitDx=0;exitDy=0;" edge="1" parent="1" source="FVN41sQuHvilbM870-iX-1">
          <mxGeometry width="50" height="50" relative="1" as="geometry">
            <mxPoint x="190" y="120" as="sourcePoint" />
            <mxPoint x="130" y="70" as="targetPoint" />
          </mxGeometry>
        </mxCell>
        <mxCell id="FVN41sQuHvilbM870-iX-8" value="Sexo" style="ellipse;whiteSpace=wrap;html=1;" vertex="1" parent="1">
          <mxGeometry x="20" y="190" width="120" height="70" as="geometry" />
        </mxCell>
        <mxCell id="FVN41sQuHvilbM870-iX-9" value="" style="endArrow=none;html=1;rounded=0;exitX=0.903;exitY=0.248;exitDx=0;exitDy=0;exitPerimeter=0;entryX=0;entryY=1;entryDx=0;entryDy=0;" edge="1" parent="1" source="FVN41sQuHvilbM870-iX-8" target="FVN41sQuHvilbM870-iX-1">
          <mxGeometry width="50" height="50" relative="1" as="geometry">
            <mxPoint x="149.03999999999996" y="241.03999999999996" as="sourcePoint" />
            <mxPoint x="200" y="225" as="targetPoint" />
            <Array as="points" />
          </mxGeometry>
        </mxCell>
        <mxCell id="FVN41sQuHvilbM870-iX-10" value="Data de nascimento" style="ellipse;whiteSpace=wrap;html=1;" vertex="1" parent="1">
          <mxGeometry x="80" y="280" width="120" height="70" as="geometry" />
        </mxCell>
        <mxCell id="FVN41sQuHvilbM870-iX-12" value="" style="endArrow=none;html=1;rounded=0;exitX=0.5;exitY=0;exitDx=0;exitDy=0;entryX=0.437;entryY=1.002;entryDx=0;entryDy=0;entryPerimeter=0;" edge="1" parent="1" source="FVN41sQuHvilbM870-iX-10" target="FVN41sQuHvilbM870-iX-1">
          <mxGeometry width="50" height="50" relative="1" as="geometry">
            <mxPoint x="210" y="240" as="sourcePoint" />
            <mxPoint x="260" y="190" as="targetPoint" />
          </mxGeometry>
        </mxCell>
        <mxCell id="FVN41sQuHvilbM870-iX-13" value="Endereco" style="rounded=0;whiteSpace=wrap;html=1;" vertex="1" parent="1">
          <mxGeometry x="500" y="130" width="120" height="60" as="geometry" />
        </mxCell>
        <mxCell id="FVN41sQuHvilbM870-iX-14" value="" style="endArrow=none;html=1;rounded=0;entryX=0.029;entryY=0.726;entryDx=0;entryDy=0;entryPerimeter=0;" edge="1" parent="1" target="FVN41sQuHvilbM870-iX-17">
          <mxGeometry width="50" height="50" relative="1" as="geometry">
            <mxPoint x="620" y="170" as="sourcePoint" />
            <mxPoint x="680" y="170" as="targetPoint" />
          </mxGeometry>
        </mxCell>
        <mxCell id="FVN41sQuHvilbM870-iX-15" value="" style="endArrow=none;html=1;rounded=0;" edge="1" parent="1">
          <mxGeometry width="50" height="50" relative="1" as="geometry">
            <mxPoint x="620" y="130" as="sourcePoint" />
            <mxPoint x="670" y="80" as="targetPoint" />
          </mxGeometry>
        </mxCell>
        <mxCell id="FVN41sQuHvilbM870-iX-16" value="Logradouro" style="ellipse;whiteSpace=wrap;html=1;" vertex="1" parent="1">
          <mxGeometry x="620" y="10" width="120" height="70" as="geometry" />
        </mxCell>
        <mxCell id="FVN41sQuHvilbM870-iX-17" value="Numero" style="ellipse;whiteSpace=wrap;html=1;" vertex="1" parent="1">
          <mxGeometry x="710" y="70" width="120" height="70" as="geometry" />
        </mxCell>
        <mxCell id="FVN41sQuHvilbM870-iX-18" value="" style="endArrow=none;html=1;rounded=0;entryX=0;entryY=0.5;entryDx=0;entryDy=0;" edge="1" parent="1" target="FVN41sQuHvilbM870-iX-19">
          <mxGeometry width="50" height="50" relative="1" as="geometry">
            <mxPoint x="310" y="159.66" as="sourcePoint" />
            <mxPoint x="350" y="160" as="targetPoint" />
          </mxGeometry>
        </mxCell>
        <mxCell id="FVN41sQuHvilbM870-iX-19" value="&lt;span style=&quot;font-size: 10px;&quot;&gt;Possui&lt;/span&gt;" style="rhombus;whiteSpace=wrap;html=1;" vertex="1" parent="1">
          <mxGeometry x="365" y="135" width="75" height="50" as="geometry" />
        </mxCell>
        <mxCell id="FVN41sQuHvilbM870-iX-20" value="" style="endArrow=none;html=1;rounded=0;entryX=0;entryY=0.5;entryDx=0;entryDy=0;" edge="1" parent="1" target="FVN41sQuHvilbM870-iX-13">
          <mxGeometry width="50" height="50" relative="1" as="geometry">
            <mxPoint x="440" y="160" as="sourcePoint" />
            <mxPoint x="480" y="160" as="targetPoint" />
            <Array as="points">
              <mxPoint x="470" y="160" />
            </Array>
          </mxGeometry>
        </mxCell>
        <mxCell id="FVN41sQuHvilbM870-iX-21" value="n" style="text;html=1;align=center;verticalAlign=middle;resizable=0;points=[];autosize=1;strokeColor=none;fillColor=none;" vertex="1" parent="1">
          <mxGeometry x="350" y="135" width="30" height="30" as="geometry" />
        </mxCell>
        <mxCell id="FVN41sQuHvilbM870-iX-22" value="1" style="text;html=1;align=center;verticalAlign=middle;resizable=0;points=[];autosize=1;strokeColor=none;fillColor=none;" vertex="1" parent="1">
          <mxGeometry x="435" y="135" width="30" height="30" as="geometry" />
        </mxCell>
        <mxCell id="FVN41sQuHvilbM870-iX-23" value="" style="endArrow=none;html=1;rounded=0;exitX=0.405;exitY=0.002;exitDx=0;exitDy=0;exitPerimeter=0;entryX=0.627;entryY=0.989;entryDx=0;entryDy=0;entryPerimeter=0;" edge="1" parent="1" source="FVN41sQuHvilbM870-iX-13" target="FVN41sQuHvilbM870-iX-24">
          <mxGeometry width="50" height="50" relative="1" as="geometry">
            <mxPoint x="500" y="130" as="sourcePoint" />
            <mxPoint x="550" y="80" as="targetPoint" />
          </mxGeometry>
        </mxCell>
        <mxCell id="FVN41sQuHvilbM870-iX-24" value="Numero" style="ellipse;whiteSpace=wrap;html=1;" vertex="1" parent="1">
          <mxGeometry x="480" y="10" width="120" height="70" as="geometry" />
        </mxCell>
        <mxCell id="FVN41sQuHvilbM870-iX-25" value="Cidade" style="ellipse;whiteSpace=wrap;html=1;" vertex="1" parent="1">
          <mxGeometry x="700" y="150" width="120" height="70" as="geometry" />
        </mxCell>
        <mxCell id="FVN41sQuHvilbM870-iX-26" value="" style="endArrow=none;html=1;rounded=0;" edge="1" parent="1">
          <mxGeometry width="50" height="50" relative="1" as="geometry">
            <mxPoint x="390" y="240" as="sourcePoint" />
            <mxPoint x="310" y="190" as="targetPoint" />
          </mxGeometry>
        </mxCell>
        <mxCell id="FVN41sQuHvilbM870-iX-27" value="" style="endArrow=none;html=1;rounded=0;exitX=0;exitY=0.5;exitDx=0;exitDy=0;" edge="1" parent="1" source="FVN41sQuHvilbM870-iX-25">
          <mxGeometry width="50" height="50" relative="1" as="geometry">
            <mxPoint x="570" y="240" as="sourcePoint" />
            <mxPoint x="620" y="190" as="targetPoint" />
          </mxGeometry>
        </mxCell>
        <mxCell id="FVN41sQuHvilbM870-iX-28" value="Pertence a" style="rhombus;whiteSpace=wrap;html=1;" vertex="1" parent="1">
          <mxGeometry x="370" y="220" width="80" height="80" as="geometry" />
        </mxCell>
        <mxCell id="FVN41sQuHvilbM870-iX-29" value="" style="endArrow=none;html=1;rounded=0;" edge="1" parent="1">
          <mxGeometry width="50" height="50" relative="1" as="geometry">
            <mxPoint x="505" y="310" as="sourcePoint" />
            <mxPoint x="440" y="270" as="targetPoint" />
          </mxGeometry>
        </mxCell>
        <mxCell id="FVN41sQuHvilbM870-iX-31" value="Departamento" style="rounded=0;whiteSpace=wrap;html=1;" vertex="1" parent="1">
          <mxGeometry x="500" y="310" width="120" height="60" as="geometry" />
        </mxCell>
        <mxCell id="FVN41sQuHvilbM870-iX-32" value="" style="endArrow=none;html=1;rounded=0;entryX=0.029;entryY=0.726;entryDx=0;entryDy=0;entryPerimeter=0;" edge="1" parent="1" target="FVN41sQuHvilbM870-iX-35">
          <mxGeometry width="50" height="50" relative="1" as="geometry">
            <mxPoint x="620" y="350" as="sourcePoint" />
            <mxPoint x="680" y="350" as="targetPoint" />
          </mxGeometry>
        </mxCell>
        <mxCell id="FVN41sQuHvilbM870-iX-33" value="" style="endArrow=none;html=1;rounded=0;" edge="1" parent="1">
          <mxGeometry width="50" height="50" relative="1" as="geometry">
            <mxPoint x="670" y="440" as="sourcePoint" />
            <mxPoint x="620" y="370" as="targetPoint" />
          </mxGeometry>
        </mxCell>
        <mxCell id="FVN41sQuHvilbM870-iX-34" value="Localizacao" style="ellipse;whiteSpace=wrap;html=1;" vertex="1" parent="1">
          <mxGeometry x="650" y="430" width="120" height="70" as="geometry" />
        </mxCell>
        <mxCell id="FVN41sQuHvilbM870-iX-35" value="Numero" style="ellipse;whiteSpace=wrap;html=1;" vertex="1" parent="1">
          <mxGeometry x="710" y="250" width="120" height="70" as="geometry" />
        </mxCell>
        <mxCell id="FVN41sQuHvilbM870-iX-36" value="" style="endArrow=none;html=1;rounded=0;exitX=0.5;exitY=1;exitDx=0;exitDy=0;entryX=0.627;entryY=0.989;entryDx=0;entryDy=0;entryPerimeter=0;" edge="1" parent="1" source="FVN41sQuHvilbM870-iX-31" target="FVN41sQuHvilbM870-iX-37">
          <mxGeometry width="50" height="50" relative="1" as="geometry">
            <mxPoint x="500" y="310" as="sourcePoint" />
            <mxPoint x="550" y="260" as="targetPoint" />
          </mxGeometry>
        </mxCell>
        <mxCell id="FVN41sQuHvilbM870-iX-37" value="&lt;u&gt;Sigla&lt;/u&gt;" style="ellipse;whiteSpace=wrap;html=1;" vertex="1" parent="1">
          <mxGeometry x="610" y="510" width="120" height="70" as="geometry" />
        </mxCell>
        <mxCell id="FVN41sQuHvilbM870-iX-38" value="Nome" style="ellipse;whiteSpace=wrap;html=1;" vertex="1" parent="1">
          <mxGeometry x="700" y="340" width="120" height="70" as="geometry" />
        </mxCell>
        <mxCell id="FVN41sQuHvilbM870-iX-39" value="" style="endArrow=none;html=1;rounded=0;exitX=0;exitY=0.5;exitDx=0;exitDy=0;" edge="1" parent="1" source="FVN41sQuHvilbM870-iX-38">
          <mxGeometry width="50" height="50" relative="1" as="geometry">
            <mxPoint x="570" y="420" as="sourcePoint" />
            <mxPoint x="620" y="370" as="targetPoint" />
          </mxGeometry>
        </mxCell>
        <mxCell id="FVN41sQuHvilbM870-iX-40" value="n" style="text;html=1;align=center;verticalAlign=middle;resizable=0;points=[];autosize=1;strokeColor=none;fillColor=none;" vertex="1" parent="1">
          <mxGeometry x="375" y="208" width="30" height="30" as="geometry" />
        </mxCell>
        <mxCell id="FVN41sQuHvilbM870-iX-41" value="m" style="text;html=1;align=center;verticalAlign=middle;resizable=0;points=[];autosize=1;strokeColor=none;fillColor=none;" vertex="1" parent="1">
          <mxGeometry x="450" y="250" width="30" height="30" as="geometry" />
        </mxCell>
        <mxCell id="FVN41sQuHvilbM870-iX-42" value="" style="endArrow=none;html=1;rounded=0;" edge="1" parent="1">
          <mxGeometry width="50" height="50" relative="1" as="geometry">
            <mxPoint x="375" y="352" as="sourcePoint" />
            <mxPoint x="280" y="190" as="targetPoint" />
          </mxGeometry>
        </mxCell>
        <mxCell id="FVN41sQuHvilbM870-iX-43" value="Supervisiona" style="rhombus;whiteSpace=wrap;html=1;" vertex="1" parent="1">
          <mxGeometry x="350" y="330" width="90" height="85" as="geometry" />
        </mxCell>
        <mxCell id="FVN41sQuHvilbM870-iX-45" value="" style="endArrow=none;html=1;rounded=0;entryX=-0.026;entryY=0.853;entryDx=0;entryDy=0;entryPerimeter=0;exitX=1;exitY=0.5;exitDx=0;exitDy=0;" edge="1" parent="1" source="FVN41sQuHvilbM870-iX-43" target="FVN41sQuHvilbM870-iX-31">
          <mxGeometry width="50" height="50" relative="1" as="geometry">
            <mxPoint x="430" y="380" as="sourcePoint" />
            <mxPoint x="480" y="330" as="targetPoint" />
          </mxGeometry>
        </mxCell>
        <mxCell id="FVN41sQuHvilbM870-iX-46" value="1" style="text;html=1;align=center;verticalAlign=middle;resizable=0;points=[];autosize=1;strokeColor=none;fillColor=none;" vertex="1" parent="1">
          <mxGeometry x="355" y="308" width="30" height="30" as="geometry" />
        </mxCell>
        <mxCell id="FVN41sQuHvilbM870-iX-47" value="1" style="text;html=1;align=center;verticalAlign=middle;resizable=0;points=[];autosize=1;strokeColor=none;fillColor=none;" vertex="1" parent="1">
          <mxGeometry x="435" y="340" width="30" height="30" as="geometry" />
        </mxCell>
        <mxCell id="FVN41sQuHvilbM870-iX-49" value="" style="endArrow=none;html=1;rounded=0;exitX=0.365;exitY=1.06;exitDx=0;exitDy=0;entryX=0.627;entryY=0.989;entryDx=0;entryDy=0;entryPerimeter=0;exitPerimeter=0;" edge="1" parent="1" source="FVN41sQuHvilbM870-iX-31" target="FVN41sQuHvilbM870-iX-50">
          <mxGeometry width="50" height="50" relative="1" as="geometry">
            <mxPoint x="450" y="360" as="sourcePoint" />
            <mxPoint x="440" y="250" as="targetPoint" />
          </mxGeometry>
        </mxCell>
        <mxCell id="FVN41sQuHvilbM870-iX-50" value="Data supervisao" style="ellipse;whiteSpace=wrap;html=1;" vertex="1" parent="1">
          <mxGeometry x="500" y="530" width="120" height="70" as="geometry" />
        </mxCell>
        <mxCell id="FVN41sQuHvilbM870-iX-51" value="" style="endArrow=none;html=1;rounded=0;" edge="1" parent="1">
          <mxGeometry width="50" height="50" relative="1" as="geometry">
            <mxPoint x="420" y="470" as="sourcePoint" />
            <mxPoint x="515" y="370" as="targetPoint" />
          </mxGeometry>
        </mxCell>
        <mxCell id="FVN41sQuHvilbM870-iX-52" value="Possui" style="rhombus;whiteSpace=wrap;html=1;" vertex="1" parent="1">
          <mxGeometry x="360" y="450" width="80" height="80" as="geometry" />
        </mxCell>
        <mxCell id="FVN41sQuHvilbM870-iX-53" value="" style="endArrow=none;html=1;rounded=0;" edge="1" parent="1">
          <mxGeometry width="50" height="50" relative="1" as="geometry">
            <mxPoint x="325" y="560" as="sourcePoint" />
            <mxPoint x="375" y="510" as="targetPoint" />
          </mxGeometry>
        </mxCell>
        <mxCell id="FVN41sQuHvilbM870-iX-54" value="Projetos" style="rounded=0;whiteSpace=wrap;html=1;" vertex="1" parent="1">
          <mxGeometry x="220" y="550" width="120" height="60" as="geometry" />
        </mxCell>
        <mxCell id="FVN41sQuHvilbM870-iX-55" value="&lt;u&gt;Codigo&lt;/u&gt;" style="ellipse;whiteSpace=wrap;html=1;" vertex="1" parent="1">
          <mxGeometry x="40" y="540" width="120" height="75" as="geometry" />
        </mxCell>
        <mxCell id="FVN41sQuHvilbM870-iX-56" value="Nome" style="ellipse;whiteSpace=wrap;html=1;" vertex="1" parent="1">
          <mxGeometry x="50" y="460" width="120" height="60" as="geometry" />
        </mxCell>
        <mxCell id="FVN41sQuHvilbM870-iX-57" value="" style="endArrow=none;html=1;rounded=0;exitX=0.992;exitY=0.388;exitDx=0;exitDy=0;exitPerimeter=0;" edge="1" parent="1" source="FVN41sQuHvilbM870-iX-55">
          <mxGeometry width="50" height="50" relative="1" as="geometry">
            <mxPoint x="170" y="635" as="sourcePoint" />
            <mxPoint x="220" y="585" as="targetPoint" />
            <Array as="points">
              <mxPoint x="220" y="580" />
            </Array>
          </mxGeometry>
        </mxCell>
        <mxCell id="FVN41sQuHvilbM870-iX-58" value="" style="endArrow=none;html=1;rounded=0;exitX=0;exitY=0;exitDx=0;exitDy=0;" edge="1" parent="1">
          <mxGeometry width="50" height="50" relative="1" as="geometry">
            <mxPoint x="220" y="560" as="sourcePoint" />
            <mxPoint x="160" y="500" as="targetPoint" />
          </mxGeometry>
        </mxCell>
        <mxCell id="FVN41sQuHvilbM870-iX-59" value="&lt;span style=&quot;border-color: var(--border-color);&quot;&gt;N° de funcionarios&lt;/span&gt;" style="ellipse;whiteSpace=wrap;html=1;" vertex="1" parent="1">
          <mxGeometry x="60" y="630" width="120" height="70" as="geometry" />
        </mxCell>
        <mxCell id="FVN41sQuHvilbM870-iX-60" value="" style="endArrow=none;html=1;rounded=0;exitX=0.903;exitY=0.248;exitDx=0;exitDy=0;exitPerimeter=0;entryX=0;entryY=1;entryDx=0;entryDy=0;" edge="1" parent="1" source="FVN41sQuHvilbM870-iX-59">
          <mxGeometry width="50" height="50" relative="1" as="geometry">
            <mxPoint x="184.03999999999996" y="661.04" as="sourcePoint" />
            <mxPoint x="225" y="610" as="targetPoint" />
            <Array as="points" />
          </mxGeometry>
        </mxCell>
        <mxCell id="FVN41sQuHvilbM870-iX-62" value="" style="endArrow=none;html=1;rounded=0;exitX=0.319;exitY=1.014;exitDx=0;exitDy=0;exitPerimeter=0;" edge="1" parent="1" source="FVN41sQuHvilbM870-iX-54" target="FVN41sQuHvilbM870-iX-63">
          <mxGeometry width="50" height="50" relative="1" as="geometry">
            <mxPoint x="270" y="660" as="sourcePoint" />
            <mxPoint x="270" y="610" as="targetPoint" />
            <Array as="points" />
          </mxGeometry>
        </mxCell>
        <mxCell id="FVN41sQuHvilbM870-iX-63" value="Horas dedicadas" style="ellipse;whiteSpace=wrap;html=1;" vertex="1" parent="1">
          <mxGeometry x="200" y="680" width="120" height="80" as="geometry" />
        </mxCell>
        <mxCell id="FVN41sQuHvilbM870-iX-64" value="1" style="text;html=1;align=center;verticalAlign=middle;resizable=0;points=[];autosize=1;strokeColor=none;fillColor=none;" vertex="1" parent="1">
          <mxGeometry x="405" y="438" width="30" height="30" as="geometry" />
        </mxCell>
        <mxCell id="FVN41sQuHvilbM870-iX-65" value="n" style="text;html=1;align=center;verticalAlign=middle;resizable=0;points=[];autosize=1;strokeColor=none;fillColor=none;" vertex="1" parent="1">
          <mxGeometry x="345" y="488" width="30" height="30" as="geometry" />
        </mxCell>
      </root>
    </mxGraphModel>
  </diagram>
</mxfile>
